<?xml version="1.0" encoding="UTF-8" standalone="no"?>
<!DOCTYPE svg PUBLIC "-//W3C//DTD SVG 1.1//EN"
 "http://www.w3.org/Graphics/SVG/1.1/DTD/svg11.dtd">
<!-- Generated by graphviz version 2.46.0 (20210119.1425)
 -->
<!-- Title: dependencies Pages: 1 -->
<svg width="593pt" height="211pt"
 viewBox="0.00 0.00 593.00 211.00" xmlns="http://www.w3.org/2000/svg" xmlns:xlink="http://www.w3.org/1999/xlink">
<g id="graph0" class="graph" transform="scale(1 1) rotate(0) translate(4 207)">
<title>dependencies</title>
<polygon fill="white" stroke="transparent" points="-4,4 -4,-207 589,-207 589,4 -4,4"/>
<text text-anchor="start" x="271.51" y="-42.4" font-family="sans-serif" font-weight="bold" font-size="14.00">Legend</text>
<polygon fill="#ffffb3" stroke="transparent" points="58.5,-10 58.5,-30 78.5,-30 78.5,-10 58.5,-10"/>
<text text-anchor="start" x="82.13" y="-15.4" font-family="sans-serif" font-size="14.00"> &#160;Declarations</text>
<polygon fill="#8dd3c7" stroke="transparent" points="171.5,-10 171.5,-30 191.5,-30 191.5,-10 171.5,-10"/>
<text text-anchor="start" x="195.23" y="-15.4" font-family="sans-serif" font-size="14.00"> &#160;Module</text>
<polygon fill="#80b1d3" stroke="transparent" points="257.5,-10 257.5,-30 277.5,-30 277.5,-10 257.5,-10"/>
<text text-anchor="start" x="281.28" y="-15.4" font-family="sans-serif" font-size="14.00"> &#160;Bootstrap</text>
<polygon fill="#fdb462" stroke="transparent" points="354.5,-10 354.5,-30 374.5,-30 374.5,-10 354.5,-10"/>
<text text-anchor="start" x="378.17" y="-15.4" font-family="sans-serif" font-size="14.00"> &#160;Providers</text>
<polygon fill="#fb8072" stroke="transparent" points="450.5,-10 450.5,-30 470.5,-30 470.5,-10 450.5,-10"/>
<text text-anchor="start" x="474.23" y="-15.4" font-family="sans-serif" font-size="14.00"> &#160;Exports</text>
<g id="clust1" class="cluster">
<title>cluster_AuthModule</title>
<polygon fill="none" stroke="black" stroke-dasharray="1,5" points="8,-70 8,-195 577,-195 577,-70 8,-70"/>
</g>
<g id="clust5" class="cluster">
<title>cluster_AuthModule_imports</title>
<polygon fill="none" stroke="black" points="296,-78 296,-130 569,-130 569,-78 296,-78"/>
</g>
<g id="clust2" class="cluster">
<title>cluster_AuthModule_declarations</title>
<polygon fill="none" stroke="black" points="16,-78 16,-130 288,-130 288,-78 16,-78"/>
</g>
<!-- LoginComponent -->
<g id="node1" class="node">
<title>LoginComponent</title>
<polygon fill="#ffffb3" stroke="black" points="280.28,-122 165.72,-122 165.72,-86 280.28,-86 280.28,-122"/>
<text text-anchor="middle" x="223" y="-99.8" font-family="Times,serif" font-size="14.00">LoginComponent</text>
</g>
<!-- AuthModule -->
<g id="node3" class="node">
<title>AuthModule</title>
<polygon fill="#8dd3c7" stroke="black" points="333.55,-187 330.55,-191 309.55,-191 306.55,-187 246.45,-187 246.45,-151 333.55,-151 333.55,-187"/>
<text text-anchor="middle" x="290" y="-164.8" font-family="Times,serif" font-size="14.00">AuthModule</text>
</g>
<!-- LoginComponent&#45;&gt;AuthModule -->
<g id="edge1" class="edge">
<title>LoginComponent&#45;&gt;AuthModule</title>
<path fill="none" stroke="black" d="M263.31,-122.11C263.31,-122.11 263.31,-140.99 263.31,-140.99"/>
<polygon fill="black" stroke="black" points="259.81,-140.99 263.31,-150.99 266.81,-140.99 259.81,-140.99"/>
</g>
<!-- SignUpComponent -->
<g id="node2" class="node">
<title>SignUpComponent</title>
<polygon fill="#ffffb3" stroke="black" points="148.11,-122 23.89,-122 23.89,-86 148.11,-86 148.11,-122"/>
<text text-anchor="middle" x="86" y="-99.8" font-family="Times,serif" font-size="14.00">SignUpComponent</text>
</g>
<!-- SignUpComponent&#45;&gt;AuthModule -->
<g id="edge2" class="edge">
<title>SignUpComponent&#45;&gt;AuthModule</title>
<path fill="none" stroke="black" d="M86,-122.11C86,-141.34 86,-169 86,-169 86,-169 236.24,-169 236.24,-169"/>
<polygon fill="black" stroke="black" points="236.24,-172.5 246.24,-169 236.24,-165.5 236.24,-172.5"/>
</g>
<!-- AuthRoutingModule -->
<g id="node4" class="node">
<title>AuthRoutingModule</title>
<polygon fill="#8dd3c7" stroke="black" points="561.17,-122 558.17,-126 537.17,-126 534.17,-122 428.83,-122 428.83,-86 561.17,-86 561.17,-122"/>
<text text-anchor="middle" x="495" y="-99.8" font-family="Times,serif" font-size="14.00">AuthRoutingModule</text>
</g>
<!-- AuthRoutingModule&#45;&gt;AuthModule -->
<g id="edge3" class="edge">
<title>AuthRoutingModule&#45;&gt;AuthModule</title>
<path fill="none" stroke="black" d="M495,-122.11C495,-141.34 495,-169 495,-169 495,-169 343.73,-169 343.73,-169"/>
<polygon fill="black" stroke="black" points="343.73,-165.5 333.73,-169 343.73,-172.5 343.73,-165.5"/>
</g>
<!-- MaterialModule -->
<g id="node5" class="node">
<title>MaterialModule</title>
<polygon fill="#8dd3c7" stroke="black" points="410.47,-122 407.47,-126 386.47,-126 383.47,-122 303.53,-122 303.53,-86 410.47,-86 410.47,-122"/>
<text text-anchor="middle" x="357" y="-99.8" font-family="Times,serif" font-size="14.00">MaterialModule</text>
</g>
<!-- MaterialModule&#45;&gt;AuthModule -->
<g id="edge4" class="edge">
<title>MaterialModule&#45;&gt;AuthModule</title>
<path fill="none" stroke="black" d="M318.64,-122.11C318.64,-122.11 318.64,-140.99 318.64,-140.99"/>
<polygon fill="black" stroke="black" points="315.14,-140.99 318.64,-150.99 322.14,-140.99 315.14,-140.99"/>
</g>
</g>
</svg>
