<?xml version="1.0" encoding="UTF-8" standalone="no"?>
<!DOCTYPE svg PUBLIC "-//W3C//DTD SVG 1.1//EN"
 "http://www.w3.org/Graphics/SVG/1.1/DTD/svg11.dtd">
<!-- Generated by graphviz version 2.46.0 (20210119.1425)
 -->
<!-- Title: dependencies Pages: 1 -->
<svg width="1549pt" height="284pt"
 viewBox="0.00 0.00 1549.00 284.00" xmlns="http://www.w3.org/2000/svg" xmlns:xlink="http://www.w3.org/1999/xlink">
<g id="graph0" class="graph" transform="scale(1 1) rotate(0) translate(4 280)">
<title>dependencies</title>
<polygon fill="white" stroke="transparent" points="-4,4 -4,-280 1545,-280 1545,4 -4,4"/>
<text text-anchor="start" x="749.51" y="-42.4" font-family="sans-serif" font-weight="bold" font-size="14.00">Legend</text>
<polygon fill="#ffffb3" stroke="transparent" points="536.5,-10 536.5,-30 556.5,-30 556.5,-10 536.5,-10"/>
<text text-anchor="start" x="560.13" y="-15.4" font-family="sans-serif" font-size="14.00"> &#160;Declarations</text>
<polygon fill="#8dd3c7" stroke="transparent" points="649.5,-10 649.5,-30 669.5,-30 669.5,-10 649.5,-10"/>
<text text-anchor="start" x="673.23" y="-15.4" font-family="sans-serif" font-size="14.00"> &#160;Module</text>
<polygon fill="#80b1d3" stroke="transparent" points="735.5,-10 735.5,-30 755.5,-30 755.5,-10 735.5,-10"/>
<text text-anchor="start" x="759.28" y="-15.4" font-family="sans-serif" font-size="14.00"> &#160;Bootstrap</text>
<polygon fill="#fdb462" stroke="transparent" points="832.5,-10 832.5,-30 852.5,-30 852.5,-10 832.5,-10"/>
<text text-anchor="start" x="856.17" y="-15.4" font-family="sans-serif" font-size="14.00"> &#160;Providers</text>
<polygon fill="#fb8072" stroke="transparent" points="928.5,-10 928.5,-30 948.5,-30 948.5,-10 928.5,-10"/>
<text text-anchor="start" x="952.23" y="-15.4" font-family="sans-serif" font-size="14.00"> &#160;Exports</text>
<g id="clust1" class="cluster">
<title>cluster_AppModule</title>
<polygon fill="none" stroke="black" stroke-dasharray="1,5" points="8,-70 8,-268 481,-268 481,-70 8,-70"/>
</g>
<g id="clust2" class="cluster">
<title>cluster_AppModule_declarations</title>
<polygon fill="none" stroke="black" points="168,-78 168,-130 473,-130 473,-78 168,-78"/>
</g>
<g id="clust5" class="cluster">
<title>cluster_AppModule_imports</title>
<polygon fill="none" stroke="black" points="16,-78 16,-130 160,-130 160,-78 16,-78"/>
</g>
<g id="clust7" class="cluster">
<title>cluster_AppModule_bootstrap</title>
<polygon fill="none" stroke="black" points="197,-208 197,-260 321,-260 321,-208 197,-208"/>
</g>
<g id="clust15" class="cluster">
<title>cluster_AuthModule</title>
<polygon fill="none" stroke="black" stroke-dasharray="1,5" points="489,-70 489,-195 1058,-195 1058,-70 489,-70"/>
</g>
<g id="clust16" class="cluster">
<title>cluster_AuthModule_declarations</title>
<polygon fill="none" stroke="black" points="497,-78 497,-130 769,-130 769,-78 497,-78"/>
</g>
<g id="clust19" class="cluster">
<title>cluster_AuthModule_imports</title>
<polygon fill="none" stroke="black" points="777,-78 777,-130 1050,-130 1050,-78 777,-78"/>
</g>
<g id="clust35" class="cluster">
<title>cluster_SearchModule</title>
<polygon fill="none" stroke="black" stroke-dasharray="1,5" points="1066,-70 1066,-195 1533,-195 1533,-70 1066,-70"/>
</g>
<g id="clust36" class="cluster">
<title>cluster_SearchModule_declarations</title>
<polygon fill="none" stroke="black" points="1240,-78 1240,-130 1525,-130 1525,-78 1240,-78"/>
</g>
<g id="clust39" class="cluster">
<title>cluster_SearchModule_imports</title>
<polygon fill="none" stroke="black" points="1074,-78 1074,-130 1232,-130 1232,-78 1074,-78"/>
</g>
<!-- AppComponent -->
<g id="node1" class="node">
<title>AppComponent</title>
<polygon fill="#ffffb3" stroke="black" points="464.94,-122 359.06,-122 359.06,-86 464.94,-86 464.94,-122"/>
<text text-anchor="middle" x="412" y="-99.8" font-family="Times,serif" font-size="14.00">AppComponent</text>
</g>
<!-- AppModule -->
<g id="node3" class="node">
<title>AppModule</title>
<polygon fill="#8dd3c7" stroke="black" points="300.66,-187 297.66,-191 276.66,-191 273.66,-187 217.34,-187 217.34,-151 300.66,-151 300.66,-187"/>
<text text-anchor="middle" x="259" y="-164.8" font-family="Times,serif" font-size="14.00">AppModule</text>
</g>
<!-- AppComponent&#45;&gt;AppModule -->
<g id="edge1" class="edge">
<title>AppComponent&#45;&gt;AppModule</title>
<path fill="none" stroke="black" d="M412,-122.28C412,-143.32 412,-175 412,-175 412,-175 310.81,-175 310.81,-175"/>
<polygon fill="black" stroke="black" points="310.81,-171.5 300.81,-175 310.81,-178.5 310.81,-171.5"/>
</g>
<!-- PageNotFoundComponent -->
<g id="node2" class="node">
<title>PageNotFoundComponent</title>
<polygon fill="#ffffb3" stroke="black" points="341.82,-122 176.18,-122 176.18,-86 341.82,-86 341.82,-122"/>
<text text-anchor="middle" x="259" y="-99.8" font-family="Times,serif" font-size="14.00">PageNotFoundComponent</text>
</g>
<!-- PageNotFoundComponent&#45;&gt;AppModule -->
<g id="edge2" class="edge">
<title>PageNotFoundComponent&#45;&gt;AppModule</title>
<path fill="none" stroke="black" d="M259,-122.11C259,-122.11 259,-140.99 259,-140.99"/>
<polygon fill="black" stroke="black" points="255.5,-140.99 259,-150.99 262.5,-140.99 255.5,-140.99"/>
</g>
<!-- AppComponent  -->
<g id="node5" class="node">
<title>AppComponent </title>
<polygon fill="#80b1d3" stroke="black" points="313.44,-252 204.56,-252 204.56,-216 313.44,-216 313.44,-252"/>
<text text-anchor="middle" x="259" y="-229.8" font-family="Times,serif" font-size="14.00">AppComponent </text>
</g>
<!-- AppModule&#45;&gt;AppComponent  -->
<g id="edge4" class="edge">
<title>AppModule&#45;&gt;AppComponent </title>
<path fill="none" stroke="black" stroke-dasharray="1,5" d="M259,-187.11C259,-187.11 259,-205.99 259,-205.99"/>
<polygon fill="black" stroke="black" points="255.5,-205.99 259,-215.99 262.5,-205.99 255.5,-205.99"/>
</g>
<!-- AppRoutingModule -->
<g id="node4" class="node">
<title>AppRoutingModule</title>
<polygon fill="#8dd3c7" stroke="black" points="152.27,-122 149.27,-126 128.27,-126 125.27,-122 23.73,-122 23.73,-86 152.27,-86 152.27,-122"/>
<text text-anchor="middle" x="88" y="-99.8" font-family="Times,serif" font-size="14.00">AppRoutingModule</text>
</g>
<!-- AppRoutingModule&#45;&gt;AppModule -->
<g id="edge3" class="edge">
<title>AppRoutingModule&#45;&gt;AppModule</title>
<path fill="none" stroke="black" d="M88,-122.11C88,-141.34 88,-169 88,-169 88,-169 207.17,-169 207.17,-169"/>
<polygon fill="black" stroke="black" points="207.17,-172.5 217.17,-169 207.17,-165.5 207.17,-172.5"/>
</g>
<!-- LoginComponent -->
<g id="node6" class="node">
<title>LoginComponent</title>
<polygon fill="#ffffb3" stroke="black" points="761.28,-122 646.72,-122 646.72,-86 761.28,-86 761.28,-122"/>
<text text-anchor="middle" x="704" y="-99.8" font-family="Times,serif" font-size="14.00">LoginComponent</text>
</g>
<!-- AuthModule -->
<g id="node8" class="node">
<title>AuthModule</title>
<polygon fill="#8dd3c7" stroke="black" points="820.55,-187 817.55,-191 796.55,-191 793.55,-187 733.45,-187 733.45,-151 820.55,-151 820.55,-187"/>
<text text-anchor="middle" x="777" y="-164.8" font-family="Times,serif" font-size="14.00">AuthModule</text>
</g>
<!-- LoginComponent&#45;&gt;AuthModule -->
<g id="edge5" class="edge">
<title>LoginComponent&#45;&gt;AuthModule</title>
<path fill="none" stroke="black" d="M747.31,-122.11C747.31,-122.11 747.31,-140.99 747.31,-140.99"/>
<polygon fill="black" stroke="black" points="743.81,-140.99 747.31,-150.99 750.81,-140.99 743.81,-140.99"/>
</g>
<!-- SignUpComponent -->
<g id="node7" class="node">
<title>SignUpComponent</title>
<polygon fill="#ffffb3" stroke="black" points="629.11,-122 504.89,-122 504.89,-86 629.11,-86 629.11,-122"/>
<text text-anchor="middle" x="567" y="-99.8" font-family="Times,serif" font-size="14.00">SignUpComponent</text>
</g>
<!-- SignUpComponent&#45;&gt;AuthModule -->
<g id="edge6" class="edge">
<title>SignUpComponent&#45;&gt;AuthModule</title>
<path fill="none" stroke="black" d="M567,-122.02C567,-139.37 567,-163 567,-163 567,-163 723.23,-163 723.23,-163"/>
<polygon fill="black" stroke="black" points="723.23,-166.5 733.23,-163 723.23,-159.5 723.23,-166.5"/>
</g>
<!-- AuthRoutingModule -->
<g id="node9" class="node">
<title>AuthRoutingModule</title>
<polygon fill="#8dd3c7" stroke="black" points="917.17,-122 914.17,-126 893.17,-126 890.17,-122 784.83,-122 784.83,-86 917.17,-86 917.17,-122"/>
<text text-anchor="middle" x="851" y="-99.8" font-family="Times,serif" font-size="14.00">AuthRoutingModule</text>
</g>
<!-- AuthRoutingModule&#45;&gt;AuthModule -->
<g id="edge7" class="edge">
<title>AuthRoutingModule&#45;&gt;AuthModule</title>
<path fill="none" stroke="black" d="M802.72,-122.11C802.72,-122.11 802.72,-140.99 802.72,-140.99"/>
<polygon fill="black" stroke="black" points="799.22,-140.99 802.72,-150.99 806.22,-140.99 799.22,-140.99"/>
</g>
<!-- MaterialModule -->
<g id="node10" class="node">
<title>MaterialModule</title>
<polygon fill="#8dd3c7" stroke="black" points="1042.47,-122 1039.47,-126 1018.47,-126 1015.47,-122 935.53,-122 935.53,-86 1042.47,-86 1042.47,-122"/>
<text text-anchor="middle" x="989" y="-99.8" font-family="Times,serif" font-size="14.00">MaterialModule</text>
</g>
<!-- MaterialModule&#45;&gt;AuthModule -->
<g id="edge8" class="edge">
<title>MaterialModule&#45;&gt;AuthModule</title>
<path fill="none" stroke="black" d="M971.17,-122.28C971.17,-143.32 971.17,-175 971.17,-175 971.17,-175 830.58,-175 830.58,-175"/>
<polygon fill="black" stroke="black" points="830.58,-171.5 820.58,-175 830.58,-178.5 830.58,-171.5"/>
</g>
<!-- SearchModule -->
<g id="node13" class="node">
<title>SearchModule</title>
<polygon fill="#8dd3c7" stroke="black" points="1281.64,-187 1278.64,-191 1257.64,-191 1254.64,-187 1184.36,-187 1184.36,-151 1281.64,-151 1281.64,-187"/>
<text text-anchor="middle" x="1233" y="-164.8" font-family="Times,serif" font-size="14.00">SearchModule</text>
</g>
<!-- MaterialModule&#45;&gt;SearchModule -->
<g id="edge11" class="edge">
<title>MaterialModule&#45;&gt;SearchModule</title>
<path fill="none" stroke="black" d="M1006.83,-122.02C1006.83,-139.37 1006.83,-163 1006.83,-163 1006.83,-163 1174.2,-163 1174.2,-163"/>
<polygon fill="black" stroke="black" points="1174.2,-166.5 1184.2,-163 1174.2,-159.5 1174.2,-166.5"/>
</g>
<!-- SearchComponent -->
<g id="node11" class="node">
<title>SearchComponent</title>
<polygon fill="#ffffb3" stroke="black" points="1516.92,-122 1397.08,-122 1397.08,-86 1516.92,-86 1516.92,-122"/>
<text text-anchor="middle" x="1457" y="-99.8" font-family="Times,serif" font-size="14.00">SearchComponent</text>
</g>
<!-- SearchComponent&#45;&gt;SearchModule -->
<g id="edge9" class="edge">
<title>SearchComponent&#45;&gt;SearchModule</title>
<path fill="none" stroke="black" d="M1457,-122.11C1457,-141.34 1457,-169 1457,-169 1457,-169 1291.88,-169 1291.88,-169"/>
<polygon fill="black" stroke="black" points="1291.88,-165.5 1281.88,-169 1291.88,-172.5 1291.88,-165.5"/>
</g>
<!-- UserInfoComponent -->
<g id="node12" class="node">
<title>UserInfoComponent</title>
<polygon fill="#ffffb3" stroke="black" points="1379.58,-122 1248.42,-122 1248.42,-86 1379.58,-86 1379.58,-122"/>
<text text-anchor="middle" x="1314" y="-99.8" font-family="Times,serif" font-size="14.00">UserInfoComponent</text>
</g>
<!-- UserInfoComponent&#45;&gt;SearchModule -->
<g id="edge10" class="edge">
<title>UserInfoComponent&#45;&gt;SearchModule</title>
<path fill="none" stroke="black" d="M1265.14,-122.11C1265.14,-122.11 1265.14,-140.99 1265.14,-140.99"/>
<polygon fill="black" stroke="black" points="1261.64,-140.99 1265.14,-150.99 1268.64,-140.99 1261.64,-140.99"/>
</g>
<!-- SearchRoutingModule -->
<g id="node14" class="node">
<title>SearchRoutingModule</title>
<polygon fill="#8dd3c7" stroke="black" points="1224.25,-122 1221.25,-126 1200.25,-126 1197.25,-122 1081.75,-122 1081.75,-86 1224.25,-86 1224.25,-122"/>
<text text-anchor="middle" x="1153" y="-99.8" font-family="Times,serif" font-size="14.00">SearchRoutingModule</text>
</g>
<!-- SearchRoutingModule&#45;&gt;SearchModule -->
<g id="edge12" class="edge">
<title>SearchRoutingModule&#45;&gt;SearchModule</title>
<path fill="none" stroke="black" d="M1204.28,-122.11C1204.28,-122.11 1204.28,-140.99 1204.28,-140.99"/>
<polygon fill="black" stroke="black" points="1200.78,-140.99 1204.28,-150.99 1207.78,-140.99 1200.78,-140.99"/>
</g>
</g>
</svg>
